<!--?xml version="1.0" standalone="no"?-->

<svg version="1.0" xmlns="http://www.w3.org/2000/svg" width="300.000000pt" height="300.000000pt" viewBox="0 0 300.000000 300.000000" preserveAspectRatio="xMidYMid meet">
<g transform="translate(0.000000,300.000000) scale(0.100000,-0.100000)" fill="#3B579D" stroke="none">
<path stroke-width="20" class="node" id="node1" d="M92 2983 c-18 -9 -45 -32 -60 -51 l-27 -35 -3 -1384 c-3 -1543 -8
-1425 66 -1481 l35 -27 749 -3 748 -2 0 580 0 580 -192 2 -193 3 -3 223 -2
222 195 0 195 0 0 205 c0 289 27 400 128 537 59 78 178 150 291 174 70 15 287
18 429 7 l82 -6 0 -203 0 -204 -152 0 c-175 0 -214 -8 -256 -52 -42 -42 -52
-98 -52 -293 l0 -165 226 0 226 0 -6 -22 c-3 -13 -13 -81 -22 -153 -9 -71 -21
-161 -27 -200 l-12 -70 -193 -3 -192 -2 0 -581 0 -580 413 3 414 3 35 27 c74
56 69 -62 66 1481 l-3 1384 -27 35 c-56 73 60 68 -1470 68 -1251 0 -1376 -2
-1406 -17z"></path>
</g>
<g transform="translate(0.000000,300.000000) scale(0.100000,-0.100000)" fill="#FFFFFF" stroke="none">


<path class="node" id="node4" d="M2014 2525 c-108 -23 -229 -96 -286 -173 -101 -137 -128 -248 -128
-537 l0 -205 -195 0 -195 0 2 -222 3 -223 193 -3 192 -2 0 -580 0 -580 235 0
235 0 0 580 0 580 192 2 193 3 12 70 c6 39 18 129 27 200 9 72 19 140 22 153
l6 22 -226 0 -226 0 0 165 c0 195 10 251 52 293 42 44 81 52 256 52 l152 0 0
204 0 203 -82 6 c-135 11 -368 6 -434 -8z"></path>


</g>
</svg>