<?xml version="1.0" encoding="utf-8"?>
<!-- Generator: Adobe Illustrator 18.1.1, SVG Export Plug-In . SVG Version: 6.00 Build 0)  -->
<!DOCTYPE svg PUBLIC "-//W3C//DTD SVG 1.1//EN" "http://www.w3.org/Graphics/SVG/1.1/DTD/svg11.dtd">
<svg version="1.1" id="Layer_1" xmlns="http://www.w3.org/2000/svg" xmlns:xlink="http://www.w3.org/1999/xlink" x="0px" y="0px"
	 width="400px" height="400px" viewBox="0 0 400 400" enable-background="new 0 0 400 400" xml:space="preserve">
<g id="layer1">
	<g id="g3257">
		<path id="path2438" fill="#4C75A3" d="M69.6,11.5h260.8c32.1,0,58.1,26,58.1,58.1v260.8c0,32.1-26,58.1-58.1,58.1H69.6
			c-32.1,0-58.1-26-58.1-58.1V69.6C11.5,37.5,37.5,11.5,69.6,11.5"/>
		<path id="path2442" fill="#FFFFFF" d="M196.8,275.4h15.4c0,0,4.7-0.5,7-3.1c2.2-2.4,2.1-6.8,2.1-6.8s-0.3-20.7,9.3-23.7
			c9.5-3,21.6,20,34.5,28.8c9.7,6.7,17.1,5.2,17.1,5.2l34.5-0.5c0,0,18-1.1,9.5-15.3c-0.7-1.2-5-10.5-25.6-29.6
			c-21.6-20.1-18.7-16.8,7.3-51.5c15.8-21.1,22.2-34,20.2-39.5c-1.9-5.3-13.5-3.9-13.5-3.9l-38.8,0.2c0,0-2.9-0.4-5,0.9
			c-2.1,1.2-3.4,4.2-3.4,4.2s-6.1,16.3-14.3,30.2c-17.3,29.3-24.2,30.9-27,29.1c-6.6-4.2-4.9-17.1-4.9-26.2
			c0-28.4,4.3-40.3-8.4-43.3c-4.2-1-7.3-1.7-18.1-1.8c-13.8-0.1-25.6,0-32.2,3.3c-4.4,2.2-7.8,7-5.7,7.3c2.6,0.3,8.4,1.6,11.4,5.8
			c4,5.4,3.8,17.6,3.8,17.6s2.3,33.5-5.3,37.6c-5.2,2.9-12.4-3-27.8-29.6c-7.9-13.6-13.8-28.7-13.8-28.7s-1.1-2.8-3.2-4.3
			c-2.5-1.8-6-2.4-6-2.4L79,135.6c0,0-5.5,0.2-7.6,2.6c-1.8,2.1-0.1,6.6-0.1,6.6s28.9,67.5,61.5,101.6
			C162.8,277.5,196.8,275.4,196.8,275.4"/>
	</g>
</g>
</svg>
